<svg width="67" height="100" viewBox="0 0 67 100" fill="none" xmlns="http://www.w3.org/2000/svg">
<path d="M45.9227 51.2224C48.6079 52.4442 55.2511 54.3209 56.971 51.1561C67.2566 32.2448 57.1492 19.7489 58.2427 16.9218L59.3965 15.6122C55.383 11.5464 26.5188 10.5454 30.1049 35.0643C30.906 40.5308 32.9583 42.7353 36.6729 45.9753C40.3874 49.2152 45.9227 51.2224 45.9227 51.2224Z" fill="#EF5AF7"/>
<path opacity="0.2" d="M45.9227 51.2224C48.6079 52.4442 55.2511 54.3209 56.971 51.1561C36.7126 44.8623 39.5533 28.1099 40.6468 25.2829L59.3965 15.6122C55.383 11.5464 26.5188 10.5454 30.1049 35.0643C30.906 40.5308 32.9583 42.7353 36.6729 45.9753C40.3874 49.2152 45.9227 51.2224 45.9227 51.2224Z" fill="white"/>
<path d="M59.5813 32.3543C60.2505 37.4947 58.9414 40.326 57.5284 45.0723C57.5284 45.0723 59.272 35.2072 57.0148 29.5979C55.7871 26.5468 56.1592 23.7047 56.1592 23.7047L56.2732 20.511C56.6281 20.5236 58.912 27.214 59.5813 32.3543Z" fill="white"/>
<path d="M2.60915 45.7342L6.05889 42.7022C6.41755 45.4194 13.0305 50.2358 24.1478 55.0668C34.3184 59.4864 50.0964 64.2563 59.1963 60.3743C61.2716 62.857 62.4818 66.2008 62.5639 68.1569C62.6459 70.113 57.3916 73.0108 53.2748 73.0839C42.0279 73.2834 33.6295 70.2793 25.8699 66.3965C17.5509 62.2338 8.06824 54.4929 4.97373 51.8283C2.46863 49.6713 2.53953 47.6849 2.60915 45.7342Z" fill="#7C65EF"/>
<path d="M9.43334 33.7994C9.47093 33.7552 9.56256 33.6601 9.63156 33.5933L12.8197 36.1875C12.7827 35.4995 12.7283 34.8394 12.6759 34.2041C12.3572 30.3378 12.0171 27.0937 16.2562 24.404C17.8442 23.3981 20.7793 22.78 23.3403 23.4216C25.4864 23.9593 27.2056 26.4546 27.7546 26.7314C28.6778 20.8958 32.3417 17.0681 37.0378 14.4436C42.9804 11.1227 48.4609 11.2528 55.052 11.4093L55.2509 11.414C54.7162 12.1458 54.1171 12.114 53.2759 12.0694C52.9675 12.0531 52.6267 12.035 52.2446 12.0521C36.831 12.2164 27.1037 19.09 28.8664 35.7889C30.259 48.9862 48.7202 56.361 56.509 54.1094C55.4755 58.647 40.7404 52.9178 37.8607 50.967C31.9483 46.9579 29.3507 44.6709 27.4199 37.321C26.0283 40.4616 13.3842 37.2762 13.3842 37.2762C13.3806 37.6125 13.3631 37.9749 13.3267 38.3781C13.2889 38.792 13.2439 39.1757 13.2009 39.5424L13.2008 39.5425C13.0486 40.8402 12.9213 41.9254 13.2273 43.3828C15.5718 45.9506 29.277 53.1939 32.9289 54.4451L33.3096 54.5759C38.2528 56.2766 51.2811 61.1656 58.7168 56.5739L58.6482 58.495C50.5504 64.9675 19.1175 52.5014 10.1136 45.1616C9.90764 44.9936 9.68708 44.8241 9.46209 44.6512C7.9666 43.5018 6.27535 42.2021 7.38456 40.1981L9.29974 40.62C9.61304 38.4973 9.38067 37.8148 8.98924 36.6652C8.83472 36.2114 8.65542 35.6848 8.47512 34.9681C8.50686 34.9364 8.85142 34.515 8.92679 34.4211L9.43334 33.7994Z" fill="#7C65EF"/>
<path fill-rule="evenodd" clip-rule="evenodd" d="M13.6726 9.86904C17.8649 5.44805 21.1047 3.33558 26.9558 1.80861C32.5845 0.339678 38.9714 1.33665 41.8281 2.17867C47.7384 3.92069 54.982 8.80206 55.0161 10.9347L54.8197 10.93C48.3113 10.7758 42.8994 10.6475 37.0309 13.9396C32.3934 16.5412 28.2329 19.5567 27.3206 25.3402C26.7785 25.066 26.8856 25.403 26.4245 24.9347C25.6406 24.1385 24.7489 22.786 23.1573 22.5268C21.3382 22.2307 17.7677 22.3473 16.1995 23.3444C9.71702 25.7779 12.5688 35.4731 12.5688 35.4731L9.69603 32.8779L8.34847 34.2565L7.89303 32.8135C6.25264 28.2104 6.05328 24.2314 7.54526 19.4926C8.53402 16.3489 10.6157 13.0927 13.6726 9.86904Z" fill="#7C65EF"/>
<path opacity="0.1" fill-rule="evenodd" clip-rule="evenodd" d="M26.9558 1.80861C21.1047 3.33558 17.8649 5.44805 13.6726 9.86904C10.6157 13.0927 8.53402 16.3489 7.54526 19.4926C6.05328 24.2314 6.25264 28.2104 7.89303 32.8135L8.34847 34.2565L9.69603 32.8779L12.5688 35.4731C12.5688 35.4731 9.71702 25.7779 16.1995 23.3444C17.0373 17.5116 20.5751 5.80604 28.0235 5.64551C30.4427 5.59338 32.4463 5.17496 34.3419 4.77911C39.7416 3.6515 44.2641 2.70707 55.0161 10.9347C54.982 8.80206 47.7384 3.92069 41.8281 2.17867C38.9714 1.33665 32.5845 0.339678 26.9558 1.80861Z" fill="white"/>
<path d="M2.20827 58.8439L2.26048 57.0951C2.40525 52.2458 7.18644 48.9094 11.7879 50.4466L56.639 65.4305C58.3621 66.0061 59.3778 67.7842 58.9985 69.5608L57.9591 74.4289C57.3759 77.1606 58.4966 79.9745 60.7982 81.5572C63.2719 83.2583 64.3623 86.3635 63.4952 89.2378L62.748 91.7145C61.6465 95.3657 57.7808 97.42 54.1383 96.2897L8.74526 82.204C4.70752 80.9511 2.48766 76.6249 3.82447 72.6142L4.20355 71.4769C5.05274 68.9291 4.77731 66.1403 3.44614 63.8079C2.58475 62.2986 2.15641 60.5809 2.20827 58.8439Z" fill="#EF5AF7"/>
<path d="M8.90364 53.1401L16.1924 55.3747L13.2016 65.1302L11.2784 64.5406L13.7052 56.6247L10.2629 55.5694L7.83608 63.4853L5.91285 62.8957L8.90364 53.1401ZM18.0086 55.9315L21.646 57.0466C22.5751 57.3315 23.268 57.8895 23.7247 58.7206C24.1721 59.549 24.2548 60.423 23.9728 61.3428C23.6908 62.2626 23.1325 62.9402 22.2977 63.3754C21.4536 63.8078 20.5671 63.8816 19.638 63.5968L17.9238 63.0712L16.9411 66.2766L15.0178 65.687L18.0086 55.9315ZM18.4749 61.2734L20.1891 61.799C20.5979 61.9243 20.9798 61.8889 21.3347 61.6928C21.6924 61.4873 21.9353 61.1756 22.0635 60.7575C22.1945 60.3301 22.1681 59.9357 21.9841 59.5744C21.8001 59.2131 21.5037 58.9698 21.0949 58.8444L19.3807 58.3189L18.4749 61.2734ZM31.7675 69.4346C30.4836 70.1082 29.1355 70.2286 27.7233 69.7956C26.3111 69.3627 25.2621 68.5075 24.5763 67.23C23.9055 65.9368 23.7866 64.584 24.2196 63.1718C24.6554 61.7503 25.5106 60.7013 26.7852 60.0248C28.072 59.3419 29.4215 59.2169 30.8337 59.6499C32.246 60.0828 33.2935 60.9427 33.9764 62.2294C34.6622 63.5069 34.7872 64.8564 34.3514 66.278C33.9156 67.6995 33.0543 68.7517 31.7675 69.4346ZM26.3298 66.3344C26.7421 67.1113 27.3989 67.6379 28.3001 67.9142C29.2013 68.1905 30.0404 68.1225 30.8173 67.7101C31.6064 67.2914 32.1433 66.6174 32.4282 65.6883C32.713 64.7592 32.646 63.9002 32.2273 63.1111C31.8085 62.322 31.1531 61.7908 30.2612 61.5174C29.3693 61.2439 28.5288 61.3166 27.7397 61.7353C26.9507 62.1541 26.4137 62.828 26.1289 63.7571C25.844 64.6862 25.911 65.5453 26.3298 66.3344ZM40.2316 72.4106L39.8855 73.5395L38.0041 72.9627L38.3501 71.8338C37.0271 71.2757 36.0714 70.5305 35.4832 69.598C34.8978 68.6562 34.776 67.6278 35.1178 66.5129C35.4596 65.398 36.1354 64.6192 37.1452 64.1767C38.1486 63.722 39.3591 63.6357 40.7769 63.9179L41.123 62.789L43.0044 63.3658L42.6584 64.4947C43.9685 65.0285 44.9242 65.7738 45.5253 66.7305C46.12 67.6752 46.2464 68.7049 45.9046 69.8199C45.5628 70.9348 44.881 71.7168 43.859 72.1658C42.8249 72.6212 41.6158 72.7028 40.2316 72.4106ZM42.1243 66.2367L40.7699 70.6546C42.5207 70.9779 43.5912 70.5031 43.9814 69.2303C44.3745 67.9481 43.7554 66.9503 42.1243 66.2367ZM37.0271 67.0982C36.6369 68.3711 37.2587 69.3597 38.8927 70.0639L40.2386 65.6739C38.4907 65.3413 37.4202 65.8161 37.0271 67.0982ZM53.1939 77.3908L51.2707 76.8012L53.0951 70.8503L47.0897 75.5194L45.6264 75.0708L48.6172 65.3152L50.5404 65.9049L48.7118 71.8697L54.7214 67.1866L56.1847 67.6352L53.1939 77.3908Z" fill="white"/>
<path d="M16.3877 70.6356L18.3667 71.2423L15.3759 80.9978L13.4666 80.4125L15.4063 74.0853L11.2723 77.773L11.0493 77.7046L9.68812 72.3475L7.75265 78.6607L5.82941 78.0711L8.8202 68.3156L10.7992 68.9223L12.1862 74.394L16.3877 70.6356ZM20.3516 78.1171L19.6809 80.3051L23.7921 81.5655L23.2281 83.4051L17.1936 81.5551L20.1844 71.7995L26.1492 73.6282L25.5853 75.4678L21.5437 74.2288L20.9071 76.3053L24.6002 77.4375L24.0448 79.2493L20.3516 78.1171ZM31.9335 79.64L33.1213 75.7656L35.0306 76.351L32.0398 86.1065L30.1305 85.5212L31.3696 81.4796L27.7461 80.3687L26.507 84.4103L24.5838 83.8207L27.5746 74.0652L29.4978 74.6548L28.31 78.5291L31.9335 79.64ZM36.1182 76.6844L43.2955 78.8848L42.7315 80.7244L40.0975 79.9169L37.6707 87.8328L35.7475 87.2432L38.1743 79.3273L35.5542 78.524L36.1182 76.6844ZM49.4177 90.0467C48.1338 90.7203 46.7857 90.8407 45.3735 90.4077C43.9613 89.9748 42.9123 89.1196 42.2265 87.8421C41.5557 86.5489 41.4368 85.1961 41.8698 83.7839C42.3056 82.3624 43.1608 81.3134 44.4354 80.6369C45.7222 79.954 47.0717 79.829 48.4839 80.262C49.8962 80.6949 50.9437 81.5548 51.6266 82.8415C52.3124 84.119 52.4374 85.4685 52.0016 86.8901C51.5658 88.3116 50.7045 89.3638 49.4177 90.0467ZM43.98 86.9465C44.3923 87.7234 45.0491 88.25 45.9503 88.5263C46.8515 88.8026 47.6906 88.7346 48.4675 88.3222C49.2566 87.9035 49.7935 87.2295 50.0784 86.3004C50.3632 85.3713 50.2962 84.5123 49.8775 83.7232C49.4587 82.9341 48.8033 82.4029 47.9114 82.1295C47.0195 81.856 46.179 81.9287 45.3899 82.3474C44.6009 82.7662 44.0639 83.4401 43.7791 84.3692C43.4942 85.2983 43.5612 86.1574 43.98 86.9465ZM54.8487 82.4267L58.4861 83.5418C59.4152 83.8267 60.1081 84.3847 60.5648 85.2158C61.0122 86.0442 61.0949 86.9182 60.8129 87.838C60.5309 88.7578 59.9725 89.4354 59.1378 89.8706C58.2937 90.303 57.4071 90.3768 56.478 90.092L54.7639 89.5664L53.7812 92.7718L51.8579 92.1822L54.8487 82.4267ZM55.315 87.7686L57.0292 88.2942C57.438 88.4195 57.8199 88.3841 58.1747 88.188C58.5325 87.9825 58.7754 87.6708 58.9036 87.2527C59.0346 86.8253 59.0082 86.431 58.8242 86.0696C58.6402 85.7083 58.3438 85.465 57.935 85.3396L56.2208 84.8141L55.315 87.7686Z" fill="white"/>
</svg>
