<svg width="25" height="25" viewBox="0 0 25 25" fill="none" xmlns="http://www.w3.org/2000/svg">
<path d="M5.5 12.281H3.5L12.5 3.28098L21.5 12.281H19.5" stroke="#7C65EF" stroke-width="2" stroke-linecap="round" stroke-linejoin="round"/>
<path d="M5.5 12.281V19.281C5.5 19.8114 5.71071 20.3201 6.08579 20.6952C6.46086 21.0703 6.96957 21.281 7.5 21.281H17.5C18.0304 21.281 18.5391 21.0703 18.9142 20.6952C19.2893 20.3201 19.5 19.8114 19.5 19.281V12.281" stroke="#7C65EF" stroke-width="2" stroke-linecap="round" stroke-linejoin="round"/>
<path d="M9.5 21.281V15.281C9.5 14.7505 9.71071 14.2418 10.0858 13.8668C10.4609 13.4917 10.9696 13.281 11.5 13.281H13.5C14.0304 13.281 14.5391 13.4917 14.9142 13.8668C15.2893 14.2418 15.5 14.7505 15.5 15.281V21.281" stroke="#7C65EF" stroke-width="2" stroke-linecap="round" stroke-linejoin="round"/>
</svg>
