<svg width="16" height="16" viewBox="0 0 16 16" fill="none" xmlns="http://www.w3.org/2000/svg">
<g clip-path="url(#clip0_282_6648)">
<path d="M1.99867 6.66223C2.01691 4.08669 4.11961 2.01357 6.69518 2.03184C8.97235 2.04798 10.9049 3.70635 11.2665 5.9547L13.3245 6.70221C13.3245 6.68887 13.3245 6.67557 13.3245 6.66223C13.3245 2.9828 10.3417 0 6.66223 0C2.98277 0 0 2.9828 0 6.66223C0 10.3417 2.9828 13.3245 6.66223 13.3245C6.67622 13.3245 6.68887 13.3245 6.70286 13.3245L5.95536 11.2665C3.68134 10.9178 2.00136 8.96286 1.99867 6.66223Z" fill="#9090A1"/>
<path d="M9.03884 5.37966C9.15276 5.37966 9.26534 5.39899 9.37861 5.40964C8.69016 3.90663 6.91362 3.24629 5.41061 3.93474C3.90761 4.62319 3.24727 6.39973 3.93572 7.90273C4.23305 8.55183 4.75258 9.0733 5.40059 9.373C5.2188 7.3575 6.70535 5.57621 8.72089 5.39446C8.8266 5.3849 8.93269 5.37997 9.03884 5.37966Z" fill="#9090A1"/>
<path d="M15.6952 14.2817L13.933 12.5196L15.0429 11.4097C15.7302 10.7227 15.7304 9.6086 15.0434 8.92133C14.8615 8.73933 14.6419 8.59945 14.4 8.51157L9.84437 6.85533C8.63408 6.41531 7.29622 7.03971 6.85616 8.25003C6.66898 8.76488 6.66904 9.32922 6.85635 9.84403L8.5126 14.3997C8.71677 14.9658 9.19727 15.3874 9.78509 15.5163C9.91154 15.5443 10.0406 15.5586 10.1702 15.5589C10.6357 15.5585 11.0819 15.3727 11.41 15.0426L12.5199 13.9327L14.2821 15.6948C14.6655 16.0918 15.2982 16.1028 15.6952 15.7194C16.0922 15.3359 16.1031 14.7033 15.7197 14.3063C15.7117 14.298 15.7035 14.2898 15.6952 14.2817ZM10.2601 13.3644L8.73445 9.16114C8.68626 9.03982 8.71718 8.90135 8.8124 8.81203C8.9009 8.71541 9.04031 8.6843 9.16151 8.73408L13.3647 10.2597L10.2601 13.3644Z" fill="#9090A1"/>
</g>
<defs>
<clipPath id="clip0_282_6648">
<rect width="16" height="16" fill="white"/>
</clipPath>
</defs>
</svg>
