<svg width="16" height="16" viewBox="0 0 16 16" fill="none" xmlns="http://www.w3.org/2000/svg">
<g clip-path="url(#clip0_282_6651)">
<path d="M16 11V12.3333C15.9989 13.3055 15.6123 14.2375 14.9249 14.9249C14.2375 15.6123 13.3055 15.9989 12.3333 16H3.66667C2.69453 15.9989 1.76252 15.6123 1.07511 14.9249C0.387707 14.2375 0.00105878 13.3055 0 12.3333L0 5.66667C0.00105878 4.69453 0.387707 3.76252 1.07511 3.07511C1.76252 2.38771 2.69453 2.00106 3.66667 2H7.66667C7.93188 2 8.18624 2.10536 8.37377 2.29289C8.56131 2.48043 8.66667 2.73478 8.66667 3C8.66667 3.26522 8.56131 3.51957 8.37377 3.70711C8.18624 3.89464 7.93188 4 7.66667 4H3.66667C3.3643 4.001 3.06794 4.08447 2.8095 4.24142C2.55106 4.39836 2.34033 4.62284 2.2 4.89067L6.82067 9.512C7.083 9.76627 7.42013 9.92946 7.7823 9.97748C8.14446 10.0255 8.51247 9.95579 8.832 9.77867C8.94581 9.71301 9.07144 9.67041 9.20172 9.6533C9.332 9.63619 9.46437 9.64491 9.59127 9.67895C9.71818 9.713 9.83714 9.77171 9.94135 9.85174C10.0456 9.93176 10.133 10.0315 10.1987 10.1453C10.2643 10.2591 10.3069 10.3848 10.324 10.5151C10.3411 10.6453 10.3324 10.7777 10.2984 10.9046C10.2643 11.0315 10.2056 11.1505 10.1256 11.2547C10.0456 11.3589 9.94581 11.4463 9.832 11.512C9.1322 11.9132 8.32002 12.0734 7.52027 11.9682C6.72053 11.8629 5.97749 11.4979 5.40533 10.9293L2 7.51867V12.3333C2 12.7754 2.17559 13.1993 2.48816 13.5118C2.80072 13.8244 3.22464 14 3.66667 14H12.3333C12.7754 14 13.1993 13.8244 13.5118 13.5118C13.8244 13.1993 14 12.7754 14 12.3333V11C14 10.7348 14.1054 10.4804 14.2929 10.2929C14.4804 10.1054 14.7348 10 15 10C15.2652 10 15.5196 10.1054 15.7071 10.2929C15.8946 10.4804 16 10.7348 16 11ZM14.6667 0H11.3333C10.9797 0 10.6406 0.140476 10.3905 0.390524C10.1405 0.640573 10 0.979711 10 1.33333V7.76933C10.0001 7.93881 10.048 8.10483 10.1382 8.24829C10.2285 8.39174 10.3574 8.5068 10.5101 8.58021C10.6629 8.65363 10.8333 8.68242 11.0017 8.66328C11.1701 8.64413 11.3296 8.57783 11.462 8.472L13 7.242L14.538 8.472C14.6704 8.57783 14.8299 8.64413 14.9983 8.66328C15.1667 8.68242 15.3371 8.65363 15.4899 8.58021C15.6426 8.5068 15.7715 8.39174 15.8618 8.24829C15.952 8.10483 15.9999 7.93881 16 7.76933V1.33333C16 0.979711 15.8595 0.640573 15.6095 0.390524C15.3594 0.140476 15.0203 0 14.6667 0V0Z" fill="#9090A1"/>
</g>
<defs>
<clipPath id="clip0_282_6651">
<rect width="16" height="16" fill="white"/>
</clipPath>
</defs>
</svg>
