<svg width="25" height="25" viewBox="0 0 25 25" fill="none" xmlns="http://www.w3.org/2000/svg">
<g opacity="0.2">
<path d="M4.5 13.281C6.28309 13.4929 7.94305 14.2985 9.21276 15.5682C10.4825 16.8379 11.2881 18.4979 11.5 20.281C12.3839 19.7714 13.1233 19.0448 13.6482 18.1699C14.1732 17.295 14.4663 16.3007 14.5 15.281C16.1791 14.6903 17.6454 13.615 18.7133 12.191C19.7813 10.767 20.4031 9.05831 20.5 7.28098C20.5 6.48533 20.1839 5.72226 19.6213 5.15966C19.0587 4.59705 18.2956 4.28098 17.5 4.28098C15.7227 4.37788 14.014 4.99964 12.59 6.06763C11.166 7.13561 10.0907 8.60187 9.5 10.281C8.48026 10.3147 7.48596 10.6078 6.61106 11.1328C5.73617 11.6577 5.00959 12.3971 4.5 13.281Z" stroke="white" stroke-width="2" stroke-linecap="round" stroke-linejoin="round"/>
<path d="M7.49999 14.281C6.45922 14.8685 5.61765 15.7536 5.08315 16.8226C4.54865 17.8916 4.34559 19.0958 4.49999 20.281C5.68515 20.4354 6.88942 20.2323 7.95841 19.6978C9.02741 19.1633 9.91242 18.3217 10.5 17.281" stroke="white" stroke-width="2" stroke-linecap="round" stroke-linejoin="round"/>
<path d="M15.5 10.281C16.0523 10.281 16.5 9.83326 16.5 9.28098C16.5 8.72869 16.0523 8.28098 15.5 8.28098C14.9477 8.28098 14.5 8.72869 14.5 9.28098C14.5 9.83326 14.9477 10.281 15.5 10.281Z" stroke="white" stroke-width="2" stroke-linecap="round" stroke-linejoin="round"/>
</g>
</svg>
