<svg width="16" height="16" viewBox="0 0 16 16" fill="none" xmlns="http://www.w3.org/2000/svg">
<path fill-rule="evenodd" clip-rule="evenodd" d="M8 16C12.4183 16 16 12.4183 16 8C16 3.58172 12.4183 0 8 0C3.58172 0 0 3.58172 0 8C0 12.4183 3.58172 16 8 16ZM4.98211 8.69916L2.83152 7.89649C2.61309 7.81464 2.61119 7.50627 2.829 7.42227L11.6551 4.01744C11.8422 3.94507 12.0352 4.109 11.9945 4.30549L10.4106 11.9243C10.3733 12.1042 10.1624 12.1858 10.0135 12.0776L7.85133 10.5078C7.72001 10.4125 7.54103 10.4176 7.41537 10.52L6.2166 11.4972C6.07744 11.611 5.86778 11.5476 5.81452 11.3762L4.98211 8.69916ZM9.88341 5.68322L5.68036 8.27188C5.51927 8.37131 5.44342 8.56585 5.49547 8.74797L5.94991 10.3448C5.98217 10.4579 6.14641 10.4463 6.16206 10.3294L6.28022 9.45373C6.30249 9.28887 6.38114 9.13699 6.50307 9.02349L9.9718 5.79914C10.0367 5.73897 9.95895 5.63683 9.88341 5.68322Z" fill="#8AA2AB"/>
</svg>
