<svg width="25" height="25" viewBox="0 0 25 25" fill="none" xmlns="http://www.w3.org/2000/svg">
<g opacity="0.2">
<path d="M12.5 20.281C13.6046 20.281 14.5 19.3855 14.5 18.281C14.5 17.1764 13.6046 16.281 12.5 16.281C11.3954 16.281 10.5 17.1764 10.5 18.281C10.5 19.3855 11.3954 20.281 12.5 20.281Z" stroke="white" stroke-width="2" stroke-linecap="round" stroke-linejoin="round"/>
<path d="M12.5 13.281L10.793 11.574C10.6055 11.3864 10.3512 11.281 10.086 11.281H7.5C6.96957 11.281 6.46086 11.0703 6.08579 10.6952C5.71071 10.3201 5.5 9.81141 5.5 9.28098V6.28098C5.5 5.75054 5.71071 5.24183 6.08579 4.86676C6.46086 4.49169 6.96957 4.28098 7.5 4.28098H17.5C18.0304 4.28098 18.5391 4.49169 18.9142 4.86676C19.2893 5.24183 19.5 5.75054 19.5 6.28098V9.28098C19.5 9.81141 19.2893 10.3201 18.9142 10.6952C18.5391 11.0703 18.0304 11.281 17.5 11.281H14.914C14.6488 11.281 14.3945 11.3864 14.207 11.574L12.5 13.281Z" stroke="white" stroke-width="2" stroke-linecap="round" stroke-linejoin="round"/>
</g>
</svg>
