<svg width="16" height="16" viewBox="0 0 16 16" fill="none" xmlns="http://www.w3.org/2000/svg">
<path d="M8.0026 4.21849e-07C6.42024 -0.000513332 4.87327 0.468244 3.55733 1.34698C2.2414 2.22572 1.21561 3.47497 0.609713 4.93674C0.00381371 6.3985 -0.154984 8.00711 0.153405 9.55913C0.461793 11.1112 1.22351 12.5369 2.34223 13.6559C3.46095 14.775 4.88641 15.5372 6.43832 15.8461C7.99024 16.155 9.59891 15.9967 11.0609 15.3913C12.5228 14.7859 13.7724 13.7605 14.6516 12.4448C15.5307 11.1292 16 9.58237 16 8C16 5.87872 15.1575 3.84428 13.6578 2.34406C12.158 0.843847 10.1239 0.00068915 8.0026 4.21849e-07ZM12.0416 11.0597H11.0545C10.6779 11.0597 10.5688 10.7662 9.8987 10.1091C9.31169 9.55325 9.05974 9.48052 8.91429 9.48052C8.6 9.48052 8.65455 9.58442 8.65455 10.6831C8.65455 10.9221 8.57663 11.0597 7.94805 11.0597C6.90909 11.0597 5.75585 10.4364 4.93767 9.28832C3.71429 7.6026 3.37922 6.32728 3.37922 6.07013C3.37922 5.92728 3.43637 5.81039 3.71689 5.81039H4.7039C4.96364 5.81039 5.05195 5.91689 5.15065 6.18702C5.63377 7.56884 6.44935 8.78442 6.78182 8.78442C6.90909 8.78442 6.96364 8.72728 6.96364 8.41559V6.98702C6.92728 6.32987 6.57143 6.27533 6.57143 6.04156C6.57337 6.00979 6.5817 5.97872 6.59594 5.95025C6.61018 5.92177 6.63002 5.89647 6.65428 5.87585C6.67853 5.85523 6.70671 5.83973 6.7371 5.83026C6.7675 5.8208 6.7995 5.81757 6.83117 5.82078H8.38961C8.5974 5.82078 8.67013 5.92987 8.67013 6.17663V8.09611C8.67013 8.3013 8.76364 8.37403 8.82598 8.37403C8.95065 8.37403 9.05714 8.3013 9.28572 8.07533C9.784 7.47704 10.1926 6.80944 10.4987 6.09351C10.5333 6.00978 10.5939 5.93936 10.6715 5.89261C10.7491 5.84585 10.8397 5.82523 10.9299 5.83377H11.8987C12.1974 5.83377 12.2597 5.98442 12.1974 6.18961C12.0727 6.75325 10.8701 8.41818 10.8675 8.42078C10.7636 8.58442 10.7221 8.68052 10.8675 8.85195C10.9247 8.92987 12.1922 10.1117 12.3792 10.6857C12.4701 10.9221 12.3273 11.0597 12.0468 11.0597H12.0416Z" fill="#8AA2AB"/>
</svg>
